<svg id="Layer_1" data-name="Layer 1" xmlns="http://www.w3.org/2000/svg" viewBox="0 0 389.6 113.54" style="width:300px;"><defs><style>.cls-1{fill:#000;}</style></defs><title>protozoa</title><path class="cls-1" d="M385.45,249.83c-3.32-8.49-12.07-8.76-22.15-9-6.5-.27-13.13-0.4-19-2.92s-10.35-7.3-14.72-11.81c-5-5.31-9.82-10.35-15.79-10.35a12.71,12.71,0,0,0-4.78.93c-9.82,3.85-10.21,12.2-10.61,22.68-0.27,6-.53,12.07-2.65,18-2,5.57-6.37,10.35-10.74,15-6.5,7-12.07,13.13-9.15,20.56,3.18,8,9.82,8.62,18.84,8.62L299,301.7c5.17,0,11.28.13,16.71,2.39,5.84,2.39,10.61,7.3,15.26,11.94,5.57,5.7,10.88,11,17,11a10.84,10.84,0,0,0,4.38-.93c5.7-2.26,4.78-11.54,3.71-21.49-0.93-8.22-1.86-16.71,1.46-21.89,4.11-6.63,10.88-10.74,16.71-14.19C383.73,262.7,389,259.12,385.45,249.83Zm-80-12.29a9.65,9.65,0,0,1,.6-1.44,31.13,31.13,0,0,1,7.06-9.33c2.2-1.85,4.37-2.8,6.11-2.66a2.63,2.63,0,0,1,.94.28c1.22,0.61,1.75,2.17,2,3.46a14.22,14.22,0,0,1,0,5.51,12.93,12.93,0,0,1-3.76,6.62,21.9,21.9,0,0,1-5.88,4c-2.59,1.22-4.84.87-6.24-.89A6.06,6.06,0,0,1,305.41,237.54ZM309,285.22a11.37,11.37,0,0,1-1.06,4c-1.85,3.93-7.15,6.4-11.19,6.72-0.31,0-.62,0-0.93,0a11.71,11.71,0,0,1-11.32-9.31c-0.42-2.31-.12-5.47,2-7.42s5.11-2.06,8.14-2.27l0.66,0c0.89-.06,1.75-0.1,2.55-0.1,3.57,0,6.39.65,8.37,1.94A6.83,6.83,0,0,1,309,285.22Zm8.73-4.63c-2.09-.61-7.09-2.57-8.37-7.23a9.25,9.25,0,0,1-.27-2.43,32.57,32.57,0,0,1,5.61-18,19.77,19.77,0,0,1,11.08-8,10.87,10.87,0,0,1,2.5-.27c3.51,0,6.55,1.82,8.64,3.44a20.93,20.93,0,0,1,6.35,7.7c1.62,3.78,1.28,7.83-1.08,11.89s-6.21,7.56-9,9.72A17.42,17.42,0,0,1,317.7,280.59Zm27.93,29.05a5.74,5.74,0,0,1-.65.45c-4,2.33-10.6-.64-15.15-6.77-2-2.71-4.14-6.8-4.06-10.13,0.07-3.16,2.21-4.78,4.27-6.35l0.45-.34a17.82,17.82,0,0,1,1.79-1.22,9.07,9.07,0,0,1,7.54-1.18c3.29,1,5.68,4.71,6.8,6.8a26.41,26.41,0,0,1,2.21,5.5C350.38,302.12,348.34,307.49,345.62,309.64ZM349,279.82a3.39,3.39,0,1,1,3.39-3.39A3.39,3.39,0,0,1,349,279.82Zm20.12-22.26a11.14,11.14,0,0,1-2.7,3.2,10.4,10.4,0,0,1-5.44,2.14,17.05,17.05,0,0,1-5.4-.33c-2.11-.47-3.25-1.69-3.2-3.34a4.62,4.62,0,0,1,2.25-3.62,7.77,7.77,0,0,1,1.06-.56,25,25,0,0,1,8.68-2.21c2.19-.07,3.91.36,4.86,1.23a1.84,1.84,0,0,1,.41.59A3.49,3.49,0,0,1,369.13,257.56Z" transform="translate(-275.09 -215.74)"/><path class="cls-1" d="M408.36,281.33a19.63,19.63,0,0,1,7.52,1.29,14.08,14.08,0,0,1,5,3.4,13.07,13.07,0,0,1,2.84,4.81,18,18,0,0,1,0,11.18,13,13,0,0,1-2.84,4.85,14.06,14.06,0,0,1-5,3.4,19.61,19.61,0,0,1-7.52,1.29H397.48v16.88H387.13V281.33h21.23Zm-2.84,22.16a21.69,21.69,0,0,0,3.43-.26,8,8,0,0,0,2.9-1,5.57,5.57,0,0,0,2-2.14,9.05,9.05,0,0,0,0-7.25,5.58,5.58,0,0,0-2-2.14,8,8,0,0,0-2.9-1,21.8,21.8,0,0,0-3.43-.26h-8v14.11h8Z" transform="translate(-275.09 -215.74)"/><path class="cls-1" d="M439,294.33v6.33h0.13a11.49,11.49,0,0,1,1.78-2.93,11.67,11.67,0,0,1,2.57-2.31,12.61,12.61,0,0,1,3.1-1.48,11.18,11.18,0,0,1,3.43-.53,7.31,7.31,0,0,1,2,.33v8.7q-0.66-.13-1.58-0.23a16.61,16.61,0,0,0-1.78-.1,10,10,0,0,0-4.35.86,7.53,7.53,0,0,0-2.87,2.34,9.37,9.37,0,0,0-1.55,3.46,18.83,18.83,0,0,0-.46,4.29v15.37h-9.36V294.33H439Z" transform="translate(-275.09 -215.74)"/><path class="cls-1" d="M454.79,304a15.59,15.59,0,0,1,9.1-9.3,19.47,19.47,0,0,1,7.25-1.29,19.73,19.73,0,0,1,7.29,1.29,15.52,15.52,0,0,1,9.13,9.3,21,21,0,0,1,1.25,7.42,20.68,20.68,0,0,1-1.25,7.39,16,16,0,0,1-3.56,5.64,15.53,15.53,0,0,1-5.57,3.59,20.23,20.23,0,0,1-7.29,1.25,20,20,0,0,1-7.25-1.25,15.57,15.57,0,0,1-5.54-3.59,16,16,0,0,1-3.56-5.64,20.65,20.65,0,0,1-1.25-7.39A20.93,20.93,0,0,1,454.79,304Zm8.51,11.41a10.6,10.6,0,0,0,1.35,3.5,7.18,7.18,0,0,0,2.54,2.47,7.74,7.74,0,0,0,4,.92,7.93,7.93,0,0,0,4-.92,7.11,7.11,0,0,0,2.57-2.47,10.63,10.63,0,0,0,1.35-3.5,20,20,0,0,0,.4-4,20.47,20.47,0,0,0-.4-4,10.28,10.28,0,0,0-1.35-3.5,7.51,7.51,0,0,0-2.57-2.47,7.71,7.71,0,0,0-4-1,7.2,7.2,0,0,0-6.5,3.43,10.25,10.25,0,0,0-1.35,3.5,20.47,20.47,0,0,0-.4,4A20,20,0,0,0,463.29,315.39Z" transform="translate(-275.09 -215.74)"/><path class="cls-1" d="M513.61,294.33v6.26h-6.86v16.88q0,2.37.79,3.17t3.17,0.79q0.79,0,1.52-.07a12.87,12.87,0,0,0,1.38-.2v7.25a22.31,22.31,0,0,1-2.64.26q-1.45.06-2.83,0.07a27.4,27.4,0,0,1-4.12-.3,9.7,9.7,0,0,1-3.43-1.15,6.1,6.1,0,0,1-2.34-2.44,8.71,8.71,0,0,1-.86-4.16V300.59h-5.67v-6.26h5.67V284.1h9.37v10.22h6.86Z" transform="translate(-275.09 -215.74)"/><path class="cls-1" d="M518.29,304a15.59,15.59,0,0,1,9.1-9.3,19.47,19.47,0,0,1,7.25-1.29,19.73,19.73,0,0,1,7.29,1.29,15.53,15.53,0,0,1,9.13,9.3,21,21,0,0,1,1.25,7.42,20.68,20.68,0,0,1-1.25,7.39,16,16,0,0,1-3.56,5.64,15.51,15.51,0,0,1-5.57,3.59,20.22,20.22,0,0,1-7.29,1.25,20,20,0,0,1-7.25-1.25,15.58,15.58,0,0,1-5.54-3.59,16,16,0,0,1-3.56-5.64,20.64,20.64,0,0,1-1.25-7.39A20.92,20.92,0,0,1,518.29,304Zm8.51,11.41a10.59,10.59,0,0,0,1.35,3.5,7.18,7.18,0,0,0,2.54,2.47,7.74,7.74,0,0,0,4,.92,7.93,7.93,0,0,0,4-.92,7.12,7.12,0,0,0,2.57-2.47,10.63,10.63,0,0,0,1.35-3.5,20,20,0,0,0,.4-4,20.47,20.47,0,0,0-.4-4,10.28,10.28,0,0,0-1.35-3.5,7.51,7.51,0,0,0-2.57-2.47,7.72,7.72,0,0,0-4-1,7.2,7.2,0,0,0-6.5,3.43,10.24,10.24,0,0,0-1.35,3.5,20.47,20.47,0,0,0-.4,4A20,20,0,0,0,526.8,315.39Z" transform="translate(-275.09 -215.74)"/><path class="cls-1" d="M574,301.38H557.59v-7.06h28.75v7.06l-17.74,20h19v7.06H556.27v-7.06Z" transform="translate(-275.09 -215.74)"/><path class="cls-1" d="M592.8,304a15.59,15.59,0,0,1,9.1-9.3,19.46,19.46,0,0,1,7.25-1.29,19.73,19.73,0,0,1,7.29,1.29,15.53,15.53,0,0,1,9.13,9.3,21,21,0,0,1,1.25,7.42,20.68,20.68,0,0,1-1.25,7.39,16,16,0,0,1-3.56,5.64,15.51,15.51,0,0,1-5.57,3.59,20.22,20.22,0,0,1-7.29,1.25,20,20,0,0,1-7.25-1.25,15.57,15.57,0,0,1-5.54-3.59,16,16,0,0,1-3.56-5.64,20.64,20.64,0,0,1-1.25-7.39A20.92,20.92,0,0,1,592.8,304Zm8.51,11.41a10.61,10.61,0,0,0,1.35,3.5,7.19,7.19,0,0,0,2.54,2.47,7.74,7.74,0,0,0,4,.92,7.93,7.93,0,0,0,4-.92,7.12,7.12,0,0,0,2.57-2.47,10.63,10.63,0,0,0,1.35-3.5,20,20,0,0,0,.4-4,20.47,20.47,0,0,0-.4-4,10.28,10.28,0,0,0-1.35-3.5,7.51,7.51,0,0,0-2.57-2.47,7.72,7.72,0,0,0-4-1,7.21,7.21,0,0,0-6.5,3.43,10.26,10.26,0,0,0-1.35,3.5,20.47,20.47,0,0,0-.4,4A20,20,0,0,0,601.31,315.39Z" transform="translate(-275.09 -215.74)"/><path class="cls-1" d="M632.5,304.81a10.89,10.89,0,0,1,1.65-5.47,11.23,11.23,0,0,1,3.69-3.49,16.1,16.1,0,0,1,5-1.88,28.72,28.72,0,0,1,5.64-.56,38.47,38.47,0,0,1,5.21.36,16,16,0,0,1,4.81,1.42,9.5,9.5,0,0,1,3.56,2.93,8.2,8.2,0,0,1,1.38,5v17.74a35.64,35.64,0,0,0,.26,4.42,8,8,0,0,0,.92,3.17h-9.5a13.14,13.14,0,0,1-.43-1.62,14,14,0,0,1-.23-1.68,12.19,12.19,0,0,1-5.28,3.23,21.19,21.19,0,0,1-6.2.92,16.75,16.75,0,0,1-4.55-.59,10.4,10.4,0,0,1-3.69-1.85,8.58,8.58,0,0,1-2.47-3.17,10.71,10.71,0,0,1-.89-4.55,9.93,9.93,0,0,1,1-4.78,8.53,8.53,0,0,1,2.64-3,11.82,11.82,0,0,1,3.69-1.68,39.78,39.78,0,0,1,4.19-.89q2.11-.33,4.15-0.53a25,25,0,0,0,3.63-.59,6.32,6.32,0,0,0,2.51-1.15,2.53,2.53,0,0,0,.86-2.21,5,5,0,0,0-.49-2.41,3.65,3.65,0,0,0-1.32-1.38,5.21,5.21,0,0,0-1.91-.66,15.73,15.73,0,0,0-2.34-.17,7.1,7.1,0,0,0-4.35,1.19,5.29,5.29,0,0,0-1.85,4H632.5Zm21.63,6.92a4.2,4.2,0,0,1-1.48.82,15.26,15.26,0,0,1-1.91.49q-1,.2-2.14.33c-0.75.09-1.5,0.2-2.24,0.33a16.85,16.85,0,0,0-2.08.53,6.15,6.15,0,0,0-1.78.89,4.24,4.24,0,0,0-1.22,1.42,4.57,4.57,0,0,0-.46,2.18,4.4,4.4,0,0,0,.46,2.11,3.54,3.54,0,0,0,1.25,1.35,5.3,5.3,0,0,0,1.85.69,11.78,11.78,0,0,0,2.18.2,8.27,8.27,0,0,0,4.29-.92,6.18,6.18,0,0,0,2.24-2.21,7.09,7.09,0,0,0,.89-2.6,18,18,0,0,0,.17-2.11v-3.5Z" transform="translate(-275.09 -215.74)"/></svg>